<?xml version="1.0" encoding="utf-8"?>
<!-- Generator: Adobe Illustrator 19.0.0, SVG Export Plug-In . SVG Version: 6.00 Build 0)  -->
<svg version="1.1" id="レイヤー_1" xmlns="http://www.w3.org/2000/svg" xmlns:xlink="http://www.w3.org/1999/xlink" x="0px"
	 y="0px" viewBox="0 0 122.5 119.5" style="enable-background:new 0 0 122.5 119.5;" xml:space="preserve">
<style type="text/css">
	.st0{fill:#6B8E23;}
</style>
<g>
	<path class="st0" d="M97.7,35.3c0.9,1.7,0.8,2.1,0,4c-5.4,1.2-10.8,3-16.2,3.4c-7,0.4-8.5,2-5.9,8.7c6.6,16.9-2,36.5-18.7,43.2
		c-1.4,0.6-2.8,1.1-4.1,1.7c-5,0.3-7.3,0.7-15,0c-5-2.8-9.1-6.4-11-12c-0.5-4.9-0.8-9.2,0-14c2.3-5.4,4.5-10.7,6.8-16.1
		C38.3,42.6,46.4,38,58.9,40.1c3.2,0.5,6.3,1.6,9.4,2.4c-0.5-2-1.5-3.6-2.9-4.2c-2.7-1.1-5.7-1.8-8.6-2.4c-7.5-1.5-9.1-5.2-5-11.6
		c6.1-3.4,6.6-2.8,11,0c3.5,3.9,7,7.8,10.7,11.9c1.2-0.8,2.6-1.7,3.9-2.6c8-5.1,11-5,18.7,0.7C96.5,34.7,97.2,34.9,97.7,35.3z
		 M44.6,76.8c-0.3-3.8-0.8-7.5-0.8-11.3c0-4.4-2.4-4.7-5.9-4.5c-3.8,0.1-4.4,2-3.8,5.2c1.1,5.7,2.1,11.4,3.1,17.2
		c0.5,2.9,2,4.7,5.1,4.2c4.2-0.7,8.3-1.8,10.9-2.4c3.8,1,6.6,2.3,9.4,2.4c4.2,0.1,4.5-3.6,5.1-6.8c0.9-4.9,2-9.8,2.8-14.7
		c0.7-4.3-2.4-6.9-6.3-5.1c-1.4,0.7-2.4,2.9-2.9,4.7c-1,3.4-1.5,7-2.4,11.7C52.4,66.9,51.7,67,44.6,76.8z M50.5,47.7
		c0,0.7,0,1.4,0,2.1c-2.3,0.6-4.8,1-6.9,2.1c-1.3,0.7-1.9,2.5-2.9,3.8c1.7,0.9,3.4,2.5,5,2.5c2.8,0,7.6-0.5,8-1.9
		c0.8-2.7,0.2-6.9-1.5-9.1c-2.2-2.8-5.9-2.2-8.9,0.2C45.8,47.4,48.1,47.5,50.5,47.7z M59.6,46c-0.4,0-0.8,0.1-1.2,0.1
		c0,3.6,0,7.2,0,10.8c0.4,0,0.8,0,1.2,0C59.6,53.3,59.6,49.6,59.6,46z M64.3,46.1c-0.3,0-0.7,0-1,0c0,3.4,0,6.8,0,10.2
		c0.3,0,0.7,0,1,0C64.3,52.9,64.3,49.5,64.3,46.1z"/>
	<path class="st0" d="M51.4,54.5c-1.3,0.7-2.6,1.9-4,2c-1.2,0.1-2.4,0-3.7-0.6c1.2-0.9,2.3-3.1,3.6-3.5c1.1-0.3,2.5,0.3,3.8,0.6
		C51.2,53.5,51.3,54,51.4,54.5z"/>
</g>
</svg>
