<!--?xml version="1.0" encoding="utf-8"?-->
<!-- Generator: Adobe Illustrator 18.1.1, SVG Export Plug-In . SVG Version: 6.00 Build 0)  -->

<svg version="1.1" id="_x32_" xmlns="http://www.w3.org/2000/svg" xmlns:xlink="http://www.w3.org/1999/xlink" x="0px" y="0px" viewBox="0 0 512 512" style="enable-background:new 0 0 512 512;" xml:space="preserve">
<style type="text/css">
	.st0{fill:#4B4B4B;}
</style>
<g>
	<path class="st0" d="M493.924,184.142c-11.13-11.157-26.639-18.083-43.65-18.083c-1.086,0-2.179,0.027-3.259,0.087v-29.334
		c0-19.646-7.992-37.522-20.865-50.382c-12.861-12.874-30.743-20.872-50.388-20.866H136.239
		c-19.646-0.006-37.528,7.992-50.388,20.866c-12.874,12.86-20.866,30.736-20.866,50.382v29.334c-1.079-0.06-2.172-0.087-3.258-0.087
		c-17.017,0-32.512,6.926-43.649,18.083C6.926,195.279-0.014,210.775,0,227.785c-0.014,10.956,2.876,21.328,7.918,30.266
		c4.848,8.609,11.714,15.904,19.941,21.322c0.275,0.965,0.704,3.01,1.006,6.282c0.368,3.815,0.61,9.3,0.61,16.843
		c0,27.229,0,46.902,0,46.902c-0.007,15.542,6.336,29.73,16.534,39.908c10.178,10.198,24.359,16.535,39.915,16.528h7.791
		l-4.486,40.599h24.178l16.145-40.599h252.899l16.146,40.599h24.172l-4.492-40.599h7.798c15.556,0.007,29.737-6.33,39.915-16.528
		c10.199-10.178,16.542-24.366,16.535-39.908c0,0,0-19.673,0-46.902c0-6.611,0.181-11.626,0.482-15.34
		c0.215-2.776,0.49-4.822,0.771-6.216c0.134-0.691,0.255-1.207,0.369-1.576c8.227-5.411,15.086-12.706,19.934-21.315
		c5.042-8.938,7.925-19.31,7.918-30.266C512.013,210.775,505.074,195.279,493.924,184.142z M86.354,136.812
		c0-13.812,5.565-26.21,14.61-35.268c9.058-9.045,21.463-14.61,35.275-14.617h239.522c13.812,0.006,26.217,5.572,35.275,14.617
		c9.045,9.058,14.604,21.456,14.61,35.268v34.383c-7.154,3.111-13.604,7.523-19.015,12.947
		c-11.15,11.137-18.09,26.633-18.076,43.643c0,4.667,0,67.258,0,67.258c-0.014,2.655-1.052,4.968-2.783,6.725
		c-1.756,1.73-4.063,2.776-6.725,2.776H132.954c-2.662,0-4.969-1.046-6.725-2.776c-1.73-1.757-2.776-4.07-2.783-6.725
		c0,0,0-62.591,0-67.258c0.007-17.01-6.919-32.506-18.076-43.643c-5.418-5.424-11.862-9.836-19.015-12.947V136.812z
		 M485.468,247.565c-3.292,5.84-8.019,10.802-13.678,14.375c-0.469,0.295-1.288,0.825-2.212,1.609
		c-0.798,0.677-1.663,1.549-2.421,2.541c-1.347,1.75-2.34,3.748-3.07,5.86c-1.093,3.198-1.743,6.766-2.213,11.593
		c-0.462,4.82-0.717,10.909-0.717,18.955c0,27.229,0,46.902,0,46.902c-0.007,9.715-3.902,18.412-10.272,24.795
		c-6.376,6.37-15.086,10.272-24.809,10.279H85.925c-9.723-0.007-18.432-3.91-24.808-10.279c-6.37-6.383-10.265-15.08-10.272-24.795
		c0,0,0-19.673,0-46.902c-0.007-7.007-0.194-12.532-0.55-17.024c-0.268-3.366-0.616-6.162-1.093-8.609
		c-0.724-3.647-1.69-6.665-3.433-9.454c-0.858-1.368-1.944-2.622-3.004-3.561c-1.052-0.952-2.025-1.576-2.555-1.911
		c-5.665-3.574-10.392-8.536-13.671-14.375c-3.298-5.854-5.176-12.552-5.176-19.78c0.007-11.177,4.506-21.201,11.821-28.537
		c7.342-7.322,17.359-11.814,28.543-11.82c11.178,0.006,21.195,4.499,28.537,11.82c7.315,7.336,11.814,17.36,11.821,28.537
		c0,4.667,0,67.258,0,67.258c-0.007,8.495,3.473,16.273,9.038,21.831c5.552,5.565,13.336,9.045,21.832,9.038h246.093
		c8.495,0.007,16.28-3.474,21.825-9.038c5.572-5.558,9.052-13.336,9.045-21.831c0,0,0-62.591,0-67.258
		c0.007-11.177,4.506-21.201,11.821-28.537c7.342-7.322,17.359-11.814,28.537-11.82c11.184,0.006,21.201,4.499,28.543,11.82
		c7.315,7.336,11.814,17.36,11.821,28.537C490.638,235.013,488.76,241.711,485.468,247.565z"></path>
	<path class="st0" d="M167.364,168.044c5.686,0,10.292-4.613,10.292-10.285c0-5.686-4.606-10.293-10.292-10.293
		c-5.68,0-10.279,4.606-10.279,10.293C157.085,163.431,161.684,168.044,167.364,168.044z"></path>
	<path class="st0" d="M346.809,168.044c5.68,0,10.292-4.613,10.292-10.285c0-5.686-4.612-10.293-10.292-10.293
		c-5.679,0-10.285,4.606-10.285,10.293C336.524,163.431,341.13,168.044,346.809,168.044z"></path>
	<path class="st0" d="M167.364,246.385c5.686,0,10.292-4.606,10.292-10.292c0-5.679-4.606-10.279-10.292-10.279
		c-5.68,0-10.279,4.6-10.279,10.279C157.085,241.779,161.684,246.385,167.364,246.385z"></path>
	<path class="st0" d="M346.809,246.385c5.68,0,10.292-4.606,10.292-10.292c0-5.679-4.612-10.279-10.292-10.279
		c-5.679,0-10.285,4.6-10.285,10.279C336.524,241.779,341.13,246.385,346.809,246.385z"></path>
	<path class="st0" d="M257.089,168.044c5.68,0,10.286-4.613,10.286-10.285c0-5.686-4.606-10.293-10.286-10.293
		c-5.679,0-10.285,4.606-10.285,10.293C246.804,163.431,251.41,168.044,257.089,168.044z"></path>
	<path class="st0" d="M257.089,246.385c5.68,0,10.286-4.606,10.286-10.292c0-5.679-4.606-10.279-10.286-10.279
		c-5.679,0-10.285,4.6-10.285,10.279C246.804,241.779,251.41,246.385,257.089,246.385z"></path>
</g>
</svg>
